<svg xmlns="http://www.w3.org/2000/svg" viewBox="0 0 64 64" role="img" aria-labelledby="title">
  <title id="title">Starry Summer moon star icon</title>
  <defs>
    <radialGradient id="sky" cx="25" cy="18" r="50" gradientUnits="userSpaceOnUse">
      <stop offset="0" stop-color="#183e58" />
      <stop offset="0.52" stop-color="#101b2d" />
      <stop offset="1" stop-color="#070a12" />
    </radialGradient>
    <linearGradient id="moon" x1="18" x2="46" y1="47" y2="14" gradientUnits="userSpaceOnUse">
      <stop offset="0" stop-color="#f5d98b" />
      <stop offset="1" stop-color="#fff7d6" />
    </linearGradient>
  </defs>
  <rect width="64" height="64" rx="17" fill="url(#sky)" />
  <path
    d="M42.8 12.5c-4.6 3.3-7.6 8.7-7.6 14.8 0 10.1 8.2 18.3 18.3 18.3 1 0 2-.1 3-.2-4.7 6.8-12.5 11.1-21.4 11.1-14.4 0-26-11.6-26-26s11.6-26 26-26c2.7 0 5.3.4 7.7 1.2Z"
    fill="url(#moon)"
  />
  <path
    d="M47.4 13.5l1.9 5.3 5.2 1.8-5.2 1.9-1.9 5.2-1.8-5.2-5.3-1.9 5.3-1.8 1.8-5.3Z"
    fill="#c8f7ff"
  />
</svg>
