<svg viewBox="0 0 28 28" fill="none" xmlns="http://www.w3.org/2000/svg">
  <path d="M14 3C7.925 3 3 7.925 3 14s4.925 11 11 11 11-4.925 11-11S20.075 3 14 3Zm0 2.2c.9.95 1.65 2.35 2.2 4.05A12.2 12.2 0 0 1 14 9.45c-.75 0-1.48-.07-2.2-.2.55-1.7 1.3-3.1 2.2-4.05ZM6.05 12.9a8.75 8.75 0 0 1 2.2-5.05c.72.55 1.52 1 2.38 1.34a21.2 21.2 0 0 0-.4 3.71H6.05Zm0 2.2h4.18c.06 1.33.2 2.58.4 3.71a10.8 10.8 0 0 0-2.38 1.34 8.75 8.75 0 0 1-2.2-5.05Zm7.95 7.7c-.9-.95-1.65-2.35-2.2-4.05.72-.13 1.45-.2 2.2-.2.75 0 1.48.07 2.2.2-.55 1.7-1.3 3.1-2.2 4.05Zm2.82-6.22A14.8 14.8 0 0 0 14 16.35c-.96 0-1.9.08-2.82.23A20.5 20.5 0 0 1 10.98 14c0-.9.07-1.76.2-2.58.92.15 1.86.23 2.82.23.96 0 1.9-.08 2.82-.23.13.82.2 1.68.2 2.58 0 .9-.07 1.76-.2 2.58Zm2.93 3.57a10.8 10.8 0 0 0-2.38-1.34c.2-1.13.34-2.38.4-3.71h4.18a8.75 8.75 0 0 1-2.2 5.05Zm-1.98-7.25a21.2 21.2 0 0 0-.4-3.71c.86-.34 1.66-.79 2.38-1.34a8.75 8.75 0 0 1 2.2 5.05h-4.18Z" fill="currentColor" />
</svg>
